<svg width="50" height="50" viewBox="0 0 50 50" fill="none" xmlns="http://www.w3.org/2000/svg">
<path d="M30.527 39.5833C29.7919 39.5832 29.0869 39.2761 28.5671 38.7298L17.4783 27.0774C16.9586 26.5312 16.6666 25.7903 16.6666 25.0179C16.6666 24.2454 16.9586 23.5046 17.4783 22.9583L28.5671 11.306C28.8228 11.0278 29.1287 10.8058 29.4669 10.6532C29.8051 10.5005 30.1689 10.4201 30.537 10.4168C30.9051 10.4134 31.2701 10.4871 31.6108 10.6336C31.9515 10.7801 32.261 10.9964 32.5213 11.2699C32.7816 11.5434 32.9875 11.8687 33.1269 12.2267C33.2662 12.5847 33.3364 12.9683 33.3332 13.3551C33.33 13.7419 33.2535 14.1241 33.1082 14.4795C32.9629 14.8349 32.7517 15.1564 32.487 15.4251L23.3581 25.0179L32.487 34.6107C32.8745 35.0181 33.1385 35.5371 33.2454 36.1021C33.3523 36.6671 33.2974 37.2527 33.0876 37.7849C32.8779 38.3172 32.5226 38.7721 32.0669 39.0922C31.6111 39.4123 31.0752 39.5832 30.527 39.5833Z" fill="#191615"/>
</svg>
