<svg width="41" height="32" viewBox="0 0 41 32" fill="none" xmlns="http://www.w3.org/2000/svg">
<path fill-rule="evenodd" clip-rule="evenodd" d="M35.7702 8.15972C37.7943 8.15972 39.4351 6.44142 39.4351 4.32179C39.4351 2.20216 37.7943 0.483856 35.7702 0.483856C33.7461 0.483856 32.1052 2.20216 32.1052 4.32179C32.1052 6.44142 33.7461 8.15972 35.7702 8.15972ZM21.5152 31.4002H40.9858L38.5591 27.1113C34.0774 19.8641 26.8941 8.54329 24.4264 4.66025C24.0277 4.03288 23.1114 4.0497 22.729 4.68715L14.4214 18.5364L11.6835 14.5379C11.2738 13.9396 10.411 13.9598 10.0433 14.5763L0.0141602 31.3936L11.2165 31.5161L21.369 31.4125C21.4191 31.412 21.4679 31.4078 21.5152 31.4002Z" fill="#40446F"/>
</svg>
