<svg width="30" height="21" viewBox="0 0 30 21" fill="none" xmlns="http://www.w3.org/2000/svg">
<g clip-path="url(#clip0_286_11442)">
<path d="M29.7012 4.9001C29.7012 4.9001 29.4082 2.96963 28.5059 2.12197C27.3633 1.00635 26.0859 1.00088 25.5 0.935254C21.3047 0.650879 15.0059 0.650879 15.0059 0.650879H14.9941C14.9941 0.650879 8.69531 0.650879 4.5 0.935254C3.91406 1.00088 2.63672 1.00635 1.49414 2.12197C0.591797 2.96963 0.304688 4.9001 0.304688 4.9001C0.304688 4.9001 0 7.16963 0 9.43369V11.5556C0 13.8196 0.298828 16.0892 0.298828 16.0892C0.298828 16.0892 0.591797 18.0196 1.48828 18.8673C2.63086 19.9829 4.13086 19.9446 4.79883 20.0649C7.20117 20.2782 15 20.3438 15 20.3438C15 20.3438 21.3047 20.3329 25.5 20.054C26.0859 19.9884 27.3633 19.9829 28.5059 18.8673C29.4082 18.0196 29.7012 16.0892 29.7012 16.0892C29.7012 16.0892 30 13.8251 30 11.5556V9.43369C30 7.16963 29.7012 4.9001 29.7012 4.9001ZM11.9004 14.1313V6.26182L20.0039 10.2103L11.9004 14.1313Z" fill="#FCFAFA"/>
</g>
<defs>
<clipPath id="clip0_286_11442">
<rect width="30" height="21" fill="white"/>
</clipPath>
</defs>
</svg>
